<svg xmlns="http://www.w3.org/2000/svg" width="241.553" height="33.333" viewBox="0 0 241.553 33.333">
  <g id="footer_logo" transform="translate(-809 -81.698)">
    <path id="패스_128" data-name="패스 128" d="M436.157,407.211v9.466c0,1.193-1.083,1.914-2.166,2.276a11.294,11.294,0,0,1-2.166.5V418.12h-4.191a5.743,5.743,0,0,1-2.277,1.082,10.791,10.791,0,0,1-1.36.25v-12.1l-1.526-.167a.269.269,0,0,1-.25-.25c0-.194.083-.277.277-.277h.028l5.8.555v2.61h3.5V407.35l-1.526-.167a.269.269,0,0,1-.25-.25c0-.194.083-.277.277-.277h.028Zm-4.331,9.994v-6.469h-3.5v5.942a1.6,1.6,0,0,1-.084.527Zm14.242,8.106c0,2.61-4.747,3.109-4.858,3.109v-7.107h-8.162l-2.36,1.055-2.332-1.055v-.527h17.712Zm.333-8.855a2.575,2.575,0,0,1-1.889,2.275,8.9,8.9,0,0,1-1.888.5v-6.358h-1.776v3.582a2.575,2.575,0,0,1-1.887,2.275,8.918,8.918,0,0,1-1.887.5V406.377l-1.527-.166a.273.273,0,0,1-.25-.278c0-.166.084-.25.278-.25h.028l5.246.555v5.719h1.776v-6.413l-1.526-.166a.271.271,0,0,1-.25-.277c0-.167.083-.25.277-.25h.028l5.247.555Z" transform="translate(495.908 -317.181)" fill="#d1d1d1"/>
    <path id="패스_129" data-name="패스 129" d="M471.056,409.333l-1.36.722-1.36-.722v-.555h10.494l2.166-1,2.164,1v.555Zm11.715,5.191c0,2.554-3.165,4.608-6.8,4.608s-6.8-2.055-6.8-4.608c0-2.582,3.165-4.636,6.8-4.636S482.771,411.943,482.771,414.525Zm-8.356-7.162a11.63,11.63,0,0,1-2.332-2.36,6.275,6.275,0,0,1,1.944-.5,4.319,4.319,0,0,1,3.609,1.332C478.746,407.113,475.609,408.417,474.415,407.363Zm4.442,7.162c0-2.055-.833-4.164-2.888-4.164-2.027,0-2.915,2.109-2.915,4.164,0,1.97.888,4.136,2.915,4.136C478.024,418.661,478.857,416.5,478.857,414.525Zm5.051,5.191V406.031l-1.526-.167a.269.269,0,0,1-.25-.25c0-.194.084-.277.278-.277h.028l5.8.555v3.581h.777a1.9,1.9,0,0,1,1.721-1.027,1.932,1.932,0,0,1,1.944,1.944h-4.442v3.747h.888a1.9,1.9,0,0,1,1.721-1.026,1.93,1.93,0,0,1,1.942,1.942h-4.552v2.638c0,1.193-1.082,1.916-2.164,2.275-.306.111-.611.2-.916.278a6.055,6.055,0,0,1,1.137.721,4.117,4.117,0,0,1,1.778,3.276c0,2.721-3.3,4.664-7.385,4.664s-7.384-1.944-7.384-4.664c0-3.109,4.025-5,7.384-5,.417,0,.805.028,1.222.055A11.594,11.594,0,0,1,483.908,419.716Zm-.083,4.524c0-2.136-.832-4.219-3.137-4.219-2.332,0-3.137,2.083-3.137,4.219s.805,3.887,3.137,3.887C482.993,428.127,483.825,426.378,483.825,424.24Z" transform="translate(503.687 -317.242)" fill="#d1d1d1"/>
    <path id="패스_130" data-name="패스 130" d="M536.574,426.33a.462.462,0,0,1,.472.444.487.487,0,0,1-.472.472H521.945a5.741,5.741,0,0,1-2.277,1.082,10.805,10.805,0,0,1-1.36.25v-8.883l-1.526-.167a.269.269,0,0,1-.25-.25c0-.194.083-.277.277-.277h.028l5.8.555h2.333V416.7h-7.162l-1.639.721-1.637-.721v-.556h19.1l2.72-1.831,2.721,1.831v.556H529.3v.832a1.739,1.739,0,0,1-.693,1.443,3.5,3.5,0,0,1-.889.583h3.137l2.277-1.055,2.332,1.083v6.468Zm-17.711-20.043-1.36.722-1.36-.722v-.555h14.936l2.72-1,2.443,1v.555Zm18.211,6.913H518.863l-1.36.721-1.36-.721v-.555H526.8a2.834,2.834,0,0,0,.554-1,16.089,16.089,0,0,0,.722-4.441,22.819,22.819,0,0,1,2.86.083c1.359.139,2.637.417,2.138,1.055-.278.388-2.166,3.248-2.888,4.219l-.055.084h1.221l2.86-1.305,2.859,1.305Zm-16.406-2.028a14.937,14.937,0,0,1-.277-2.193c-.084-.583-.139-1.221-.2-1.915,1.8,0,4.858,3,4.5,4.886C524.47,412.949,520.807,412.56,520.667,411.172Zm1.971,9.3V425.8a1.6,1.6,0,0,1-.083.528h8.578v-5.858Z" transform="translate(511.48 -317.201)" fill="#d1d1d1"/>
    <path id="패스_131" data-name="패스 131" d="M378,419.684l2.332,1.054,2.36-1.054h9.828v7.106c.11,0,4.857-.5,4.857-3.109v-4.525H378Z" transform="translate(488.447 -314.767)" fill="#d1d1d1"/>
    <path id="패스_132" data-name="패스 132" d="M397.652,414.6l-2.72,1.832h-19.1v.555l1.638,1.277,1.638-1.277h21.264v-.555Z" transform="translate(488.082 -315.537)" fill="#d1d1d1"/>
    <path id="패스_133" data-name="패스 133" d="M380.407,408.5h6.469a14,14,0,0,1-2.579.913c-.085.02-.169.042-.255.063l-.069.017h0c-2.3.6-4.18,1.731-4.18,3.226,0,2.109,3.5,3.526,7.8,3.526s7.8-1.417,7.8-3.526c0-1.887-2.831-3.331-6.524-3.636-.416-.028-.86-.056-1.276-.056-.391,0-.791.02-1.192.055.352-.165.76-.365,1.179-.582h9.923v-.555l-2.166-1s-5.274-2.052-6.67-2.51a4.815,4.815,0,0,0-1.937-.237,6.306,6.306,0,0,0-1.942.5,11.536,11.536,0,0,0,2.332,2.36,2.083,2.083,0,0,0,1.726.335c-.271.18-.573.367-.9.554H377.686v.555l1.36.721Zm7.19,1.137c2.443,0,3.331,1.527,3.331,3.082,0,1.637-.888,2.943-3.331,2.943-2.471,0-3.332-1.305-3.332-2.943C384.265,411.162,385.126,409.634,387.6,409.634Zm2.867-3.162a.762.762,0,0,0-.119-.945c-.07-.075-.144-.136-.216-.2a27.762,27.762,0,0,1,4.858,1.783l-1.81.836H388.6A5.418,5.418,0,0,0,390.463,406.472Z" transform="translate(488.395 -317.294)" fill="#d1d1d1"/>
    <line id="선_73" data-name="선 73" y2="20.232" transform="translate(903.201 89.338)" fill="none" stroke="#d1d1d1" stroke-miterlimit="10" stroke-width="0.25"/>
    <line id="선_74" data-name="선 74" y2="20.232" transform="translate(957.234 89.338)" fill="none" stroke="#d1d1d1" stroke-miterlimit="10" stroke-width="0.25"/>
    <line id="선_75" data-name="선 75" y2="20.232" transform="translate(1011.267 89.338)" fill="none" stroke="#d1d1d1" stroke-miterlimit="10" stroke-width="0.25"/>
    <path id="패스_134" data-name="패스 134" d="M355.383,419.666c-2.286-3.594-3.531-2.114-5.209-1.3-2.662,1.294-3.951,1.149-5.5.778-3.866-.926-1.9-9.629-8.369-3.685a9.7,9.7,0,0,0-3.008,4.2c-1.433,4.649,4.944,8.832,11.043,8.832S357.954,423.707,355.383,419.666Z" transform="translate(480.872 -315.739)" fill="#d1d1d1"/>
    <path id="패스_135" data-name="패스 135" d="M361.4,407.156a1.443,1.443,0,0,0-.571-.349,3.119,3.119,0,0,0-.437-.121,7.859,7.859,0,0,0-.792-.122c-.513-.056-1.012-.085-1.511-.109-3.372-.134-6.714-.125-10-.507-.152-.33-.31-.656-.479-.976a11.846,11.846,0,0,0-1.769-2.536,9.335,9.335,0,0,0-2.439-1.908,6.1,6.1,0,0,0-3.035-.784,2.534,2.534,0,0,0-1.637.6,1.546,1.546,0,0,0-.476.916,2.031,2.031,0,0,0,.12.966,4.357,4.357,0,0,0,.922,1.4,8.869,8.869,0,0,0,1.186,1.047,10.389,10.389,0,0,0,2.789,1.349,22.24,22.24,0,0,0,2.932.728c.536.1,1.073.18,1.61.254q.216.5.411,1.01c.027.079.051.159.078.238-.506-.012-1.011-.021-1.516-.034l-5.894-.188c-1.965-.077-3.933-.124-5.9-.181l-2.956-.065c-.493-.008-.988,0-1.484,0-.248.006-.5.013-.747.028-.125.007-.251.016-.381.03-.064.007-.131.016-.2.029a1.053,1.053,0,0,0-.113.028.593.593,0,0,0-.075.027l-.05.028a.343.343,0,0,0-.076.074l-.022.04a.473.473,0,0,0,.028.413.932.932,0,0,0,.184.227,2.369,2.369,0,0,0,.4.282,6.779,6.779,0,0,0,.813.4c.549.228,1.108.416,1.67.589a32.311,32.311,0,0,0,3.416.829.065.065,0,0,0,.076-.051.067.067,0,0,0-.049-.081c-1.134-.272-2.253-.607-3.352-.99-.548-.193-1.093-.4-1.615-.644a6.6,6.6,0,0,1-.753-.4,1.94,1.94,0,0,1-.314-.243.547.547,0,0,1-.057-.063c.042,0,.085-.007.131-.008.116,0,.235,0,.355,0,.242,0,.485.015.729.028l1.467.092,2.939.22c1.961.153,3.923.332,5.888.464s3.93.275,5.9.374c.652.036,1.3.062,1.956.09.108.428.2.859.273,1.294a14.35,14.35,0,0,1,.164,2.961,12.587,12.587,0,0,1-1.615,5.658,11.558,11.558,0,0,1-4.053,4.2,11.038,11.038,0,0,1-5.576,1.585.069.069,0,0,0-.065.068.067.067,0,0,0,.065.068,11.228,11.228,0,0,0,5.706-1.488,11.877,11.877,0,0,0,4.259-4.225,13.059,13.059,0,0,0,1.8-5.831,14.891,14.891,0,0,0-.105-3.085c-.056-.394-.132-.784-.216-1.173,1.108.043,2.218.076,3.331.085a46.119,46.119,0,0,0,5.979-.219,10.327,10.327,0,0,0,1.552-.3,2.973,2.973,0,0,0,.873-.39,1.617,1.617,0,0,0,.442-.466,1,1,0,0,0,.155-.548A.938.938,0,0,0,361.4,407.156Zm-15.028-1.443a21.216,21.216,0,0,1-2.812-.649A9.475,9.475,0,0,1,341,403.888a5.279,5.279,0,0,1-1.81-1.987.789.789,0,0,1,.117-.914,1.746,1.746,0,0,1,1.094-.385,5.325,5.325,0,0,1,2.634.65,8.6,8.6,0,0,1,2.26,1.716,11.812,11.812,0,0,1,1.969,2.874C346.967,405.8,346.667,405.762,346.367,405.713Zm12.107,2.395c-1.894.191-3.86.213-5.813.214-1.227-.008-2.458-.029-3.688-.055-.048-.159-.093-.319-.145-.477q-.121-.347-.255-.691c3.158.383,6.328.457,9.441.644.484.034.967.072,1.432.133.07.009.138.02.208.032A10,10,0,0,1,358.474,408.108Z" transform="translate(480.155 -318.043)" fill="#d1d1d1"/>
    <path id="패스_136" data-name="패스 136" d="M355.644,411.551a13.542,13.542,0,0,0-3.616-2.014.067.067,0,0,0-.081.032.07.07,0,0,0,.027.092h0a14.881,14.881,0,0,1,3.271,2.355,10.182,10.182,0,0,1,2.418,10.925,9.642,9.642,0,0,1-2.044,3.23,11.937,11.937,0,0,1-3.1,2.3,16.976,16.976,0,0,1-7.573,1.864,15.967,15.967,0,0,1-3.914-.411,15.6,15.6,0,0,1-3.722-1.33,12.516,12.516,0,0,1-3.188-2.332c-.217-.249-.466-.473-.659-.742l-.584-.806-.484-.872c-.155-.294-.254-.616-.384-.923a10.084,10.084,0,0,1-.557-3.969,9.636,9.636,0,0,1,1.163-3.853,12.106,12.106,0,0,1,2.545-3.152,14.87,14.87,0,0,1,3.351-2.285h0a.07.07,0,0,0,.032-.089.066.066,0,0,0-.088-.035,14.982,14.982,0,0,0-3.47,2.2,12.4,12.4,0,0,0-2.716,3.153,10.11,10.11,0,0,0-1.347,4.01,10.7,10.7,0,0,0,.463,4.247c.131.333.231.683.39,1l.5.954.608.883c.2.3.46.543.688.817a13.4,13.4,0,0,0,3.34,2.571,16.5,16.5,0,0,0,3.9,1.5,16.957,16.957,0,0,0,4.138.539,18.461,18.461,0,0,0,8.149-1.747,12.981,12.981,0,0,0,3.494-2.513,10.423,10.423,0,0,0,2.3-3.748,10.992,10.992,0,0,0-.573-8.558A10.306,10.306,0,0,0,355.644,411.551Z" transform="translate(480.499 -316.391)" fill="#d1d1d1"/>
  </g>
</svg>
