<svg xmlns="http://www.w3.org/2000/svg" xmlns:xlink="http://www.w3.org/1999/xlink" width="14.688" height="14.908" viewBox="0 0 14.688 14.908">
  <defs>
    <linearGradient id="linear-gradient" y1="0.5" x2="1" y2="0.5" gradientUnits="objectBoundingBox">
      <stop offset="0" stop-color="#fff" stop-opacity="0.2"/>
      <stop offset="0.028" stop-color="#fff" stop-opacity="0.278"/>
      <stop offset="0.084" stop-color="#fff" stop-opacity="0.482"/>
      <stop offset="0.088" stop-color="#fff" stop-opacity="0.502"/>
      <stop offset="1" stop-color="#fff"/>
    </linearGradient>
  </defs>
  <path id="icon_search" d="M14.434,14.231,10.108,9.786A5.829,5.829,0,0,0,5.908,0H5.827A5.829,5.829,0,0,0,1.651,9.894a5.791,5.791,0,0,0,4.1,1.763h.081a5.785,5.785,0,0,0,3.838-1.444l4.326,4.445Zm-8.6-3.186H5.758A5.216,5.216,0,0,1,2.191,2.091,5.181,5.181,0,0,1,5.827.613H5.9A5.216,5.216,0,0,1,9.467,9.567,5.18,5.18,0,0,1,5.831,11.045Z" transform="matrix(1, -0.017, 0.017, 1, 0, 0.252)" fill="url(#linear-gradient)"/>
</svg>
