<svg xmlns="http://www.w3.org/2000/svg" width="302" height="41.676" viewBox="0 0 302 41.676">
  <g id="main_logo" transform="translate(-809 -81.698)">
    <path id="패스_128" data-name="패스 128" d="M439.644,407.8v11.835c0,1.492-1.354,2.393-2.707,2.845a14.127,14.127,0,0,1-2.708.625v-1.666h-5.24a7.179,7.179,0,0,1-2.846,1.353,13.492,13.492,0,0,1-1.7.313V407.975l-1.908-.209a.336.336,0,0,1-.313-.313c0-.242.1-.346.346-.346h.035l7.255.694v3.263h4.372v-3.089l-1.908-.209a.336.336,0,0,1-.313-.313c0-.242.1-.346.346-.346h.035ZM434.229,420.3v-8.088h-4.372v7.429a2,2,0,0,1-.105.659Zm17.806,10.135c0,3.263-5.935,3.887-6.074,3.887v-8.885h-10.2l-2.95,1.319-2.915-1.319v-.659h22.144Zm.416-11.071c0,1.492-1.146,2.325-2.361,2.845a11.127,11.127,0,0,1-2.36.625V414.88h-2.221v4.478c0,1.492-1.146,2.325-2.36,2.845a11.151,11.151,0,0,1-2.36.625v-16.07l-1.91-.207a.341.341,0,0,1-.313-.348c0-.207.105-.313.348-.313h.035l6.559.694v7.15h2.221v-8.017l-1.908-.207a.339.339,0,0,1-.313-.346c0-.209.1-.313.346-.313h.035l6.561.694Z" transform="translate(523.216 -315.686)" fill="#fff"/>
    <path id="패스_129" data-name="패스 129" d="M471.737,410.546l-1.7.9-1.7-.9v-.694h13.12l2.708-1.249,2.706,1.249v.694Zm14.647,6.49c0,3.193-3.957,5.761-8.5,5.761s-8.5-2.569-8.5-5.761c0-3.228,3.957-5.8,8.5-5.8S486.383,413.809,486.383,417.037Zm-10.447-8.954a14.539,14.539,0,0,1-2.915-2.95,7.845,7.845,0,0,1,2.43-.625,5.4,5.4,0,0,1,4.512,1.666C481.351,407.77,477.429,409.4,475.936,408.083Zm5.554,8.954c0-2.569-1.042-5.206-3.611-5.206-2.534,0-3.644,2.637-3.644,5.206,0,2.464,1.111,5.171,3.644,5.171C480.448,422.208,481.49,419.5,481.49,417.037Zm6.315,6.49v-17.11l-1.908-.209a.336.336,0,0,1-.313-.313c0-.243.105-.346.348-.346h.035l7.253.694v4.477h.972a2.376,2.376,0,0,1,2.152-1.284,2.415,2.415,0,0,1,2.43,2.43H493.22v4.685h1.111a2.377,2.377,0,0,1,2.152-1.283,2.414,2.414,0,0,1,2.428,2.428H493.22v3.3c0,1.492-1.353,2.395-2.706,2.845-.383.139-.764.244-1.146.348a7.572,7.572,0,0,1,1.422.9,5.148,5.148,0,0,1,2.222,4.1c0,3.4-4.131,5.831-9.233,5.831s-9.232-2.43-9.232-5.831c0-3.887,5.032-6.246,9.232-6.246.522,0,1.007.035,1.528.069A14.493,14.493,0,0,1,487.8,423.527Zm-.1,5.656c0-2.671-1.04-5.275-3.922-5.275-2.915,0-3.922,2.6-3.922,5.275s1.007,4.86,3.922,4.86C486.661,434.043,487.7,431.856,487.7,429.183Z" transform="translate(544.482 -315.854)" fill="#fff"/>
    <path id="패스_130" data-name="패스 130" d="M542.089,431.734a.578.578,0,0,1,.59.555.608.608,0,0,1-.59.59H523.8a7.178,7.178,0,0,1-2.846,1.353,13.509,13.509,0,0,1-1.7.313V423.439l-1.908-.209a.336.336,0,0,1-.313-.313c0-.243.1-.346.346-.346h.035l7.253.694h2.916v-3.574h-8.954l-2.049.9-2.047-.9V419h23.878l3.4-2.29,3.4,2.29v.7H533v1.04a2.174,2.174,0,0,1-.866,1.8,4.376,4.376,0,0,1-1.112.729h3.922l2.846-1.319L540.7,423.3v8.086Zm-22.143-25.059-1.7.9-1.7-.9v-.694h18.674l3.4-1.249,3.054,1.249v.694Zm22.768,8.643H519.947l-1.7.9-1.7-.9v-.694h13.329a3.544,3.544,0,0,0,.693-1.251,20.121,20.121,0,0,0,.9-5.552,28.534,28.534,0,0,1,3.575.1c1.7.174,3.3.522,2.673,1.319-.348.485-2.708,4.061-3.611,5.275l-.069.105h1.527l3.575-1.632,3.574,1.632ZM522.2,412.783a18.686,18.686,0,0,1-.346-2.741c-.105-.729-.174-1.527-.244-2.395,2.256,0,6.074,3.749,5.623,6.109C526.957,415.005,522.376,414.519,522.2,412.783Zm2.464,11.628v6.663a2,2,0,0,1-.1.66h10.725v-7.323Z" transform="translate(565.787 -315.741)" fill="#fff"/>
    <path id="패스_131" data-name="패스 131" d="M378,419.816l2.915,1.318,2.95-1.318h12.287V428.7c.137,0,6.073-.624,6.073-3.887v-5.658H378Z" transform="translate(502.821 -309.089)" fill="#fff"/>
    <path id="패스_132" data-name="패스 132" d="M403.113,414.6l-3.4,2.29H375.833v.694l2.048,1.6,2.047-1.6h26.586v-.694Z" transform="translate(501.824 -311.192)" fill="#fff"/>
    <path id="패스_133" data-name="패스 133" d="M381.088,409.578h8.088a17.5,17.5,0,0,1-3.225,1.141c-.107.025-.212.053-.319.079l-.086.022h0c-2.877.745-5.227,2.164-5.227,4.033,0,2.637,4.373,4.408,9.753,4.408s9.752-1.771,9.752-4.408c0-2.36-3.539-4.164-8.156-4.546-.52-.035-1.075-.07-1.6-.07-.489,0-.989.025-1.49.069.44-.206.95-.456,1.474-.728h12.407v-.694l-2.708-1.251s-6.594-2.566-8.339-3.139a6.019,6.019,0,0,0-2.421-.3,7.883,7.883,0,0,0-2.428.624,14.421,14.421,0,0,0,2.915,2.95,2.6,2.6,0,0,0,2.158.419c-.339.225-.716.459-1.127.693H377.686v.694l1.7.9ZM390.077,411c3.054,0,4.164,1.91,4.164,3.853,0,2.047-1.11,3.679-4.164,3.679-3.089,0-4.166-1.632-4.166-3.679C385.911,412.909,386.988,411,390.077,411Zm3.584-3.954a.953.953,0,0,0-.149-1.182c-.088-.094-.18-.17-.27-.254a34.713,34.713,0,0,1,6.074,2.23l-2.263,1.045h-5.723A6.774,6.774,0,0,0,393.661,407.046Z" transform="translate(502.679 -315.996)" fill="#fff"/>
    <line id="선_73" data-name="선 73" y2="25.295" transform="translate(926.775 91.25)" fill="none" stroke="#fff" stroke-miterlimit="10" stroke-width="0.25"/>
    <line id="선_74" data-name="선 74" y2="25.295" transform="translate(994.329 91.25)" fill="none" stroke="#fff" stroke-miterlimit="10" stroke-width="0.25"/>
    <line id="선_75" data-name="선 75" y2="25.295" transform="translate(1061.883 91.25)" fill="none" stroke="#fff" stroke-miterlimit="10" stroke-width="0.25"/>
    <path id="패스_134" data-name="패스 134" d="M360.961,421.234c-2.858-4.493-4.414-2.643-6.512-1.623-3.329,1.618-4.94,1.436-6.875.973-4.833-1.157-2.376-12.039-10.463-4.607a12.131,12.131,0,0,0-3.761,5.257c-1.791,5.813,6.181,11.042,13.806,11.042S364.176,426.287,360.961,421.234Z" transform="translate(482.115 -311.744)" fill="#7b909f"/>
    <path id="패스_135" data-name="패스 135" d="M369.541,409.012a1.805,1.805,0,0,0-.714-.437,3.9,3.9,0,0,0-.546-.152,9.834,9.834,0,0,0-.991-.152c-.641-.07-1.265-.107-1.889-.136-4.215-.168-8.394-.156-12.5-.634-.19-.412-.387-.82-.6-1.22a14.809,14.809,0,0,0-2.212-3.171,11.671,11.671,0,0,0-3.049-2.386,7.624,7.624,0,0,0-3.795-.98,3.168,3.168,0,0,0-2.047.748,1.932,1.932,0,0,0-.595,1.146,2.54,2.54,0,0,0,.15,1.208A5.448,5.448,0,0,0,341.9,404.6a11.088,11.088,0,0,0,1.483,1.309,12.989,12.989,0,0,0,3.486,1.686,27.809,27.809,0,0,0,3.666.91c.671.121,1.341.225,2.013.317q.27.629.514,1.262c.034.1.064.2.1.3-.633-.015-1.264-.026-1.9-.042L343.9,410.1c-2.456-.1-4.917-.155-7.379-.226l-3.7-.082c-.617-.01-1.235-.006-1.856.006-.31.007-.62.016-.934.035-.156.009-.314.02-.476.038-.08.009-.164.02-.25.037a1.318,1.318,0,0,0-.142.035.742.742,0,0,0-.094.034l-.063.035a.431.431,0,0,0-.095.092l-.028.05a.591.591,0,0,0,.035.516,1.165,1.165,0,0,0,.229.283,2.961,2.961,0,0,0,.494.352,8.47,8.47,0,0,0,1.017.5c.687.285,1.385.52,2.088.736a40.4,40.4,0,0,0,4.271,1.036.082.082,0,0,0,.1-.064.084.084,0,0,0-.061-.1c-1.417-.34-2.817-.758-4.191-1.238-.685-.241-1.366-.5-2.019-.805a8.258,8.258,0,0,1-.941-.5,2.428,2.428,0,0,1-.393-.3.69.69,0,0,1-.072-.079c.053,0,.107-.009.164-.01.145-.006.294-.006.444,0,.3.006.606.019.912.035l1.834.115,3.675.275c2.452.191,4.905.415,7.361.58s4.914.343,7.376.468c.815.045,1.631.077,2.446.112.134.535.251,1.074.342,1.618a17.944,17.944,0,0,1,.2,3.7,15.737,15.737,0,0,1-2.019,7.073,14.45,14.45,0,0,1-5.067,5.248,13.8,13.8,0,0,1-6.971,1.981.086.086,0,0,0-.082.085.083.083,0,0,0,.082.085,14.037,14.037,0,0,0,7.133-1.86A14.849,14.849,0,0,0,352.6,424.7a16.327,16.327,0,0,0,2.247-7.29,18.612,18.612,0,0,0-.132-3.857c-.07-.492-.165-.98-.27-1.467,1.385.054,2.773.1,4.164.107a57.661,57.661,0,0,0,7.475-.273,12.912,12.912,0,0,0,1.94-.371,3.715,3.715,0,0,0,1.091-.488,2.022,2.022,0,0,0,.552-.583,1.255,1.255,0,0,0,.194-.685A1.173,1.173,0,0,0,369.541,409.012Zm-18.789-1.8a26.523,26.523,0,0,1-3.516-.811,11.846,11.846,0,0,1-3.193-1.471,6.6,6.6,0,0,1-2.263-2.484.987.987,0,0,1,.146-1.143,2.183,2.183,0,0,1,1.368-.481,6.657,6.657,0,0,1,3.293.812,10.752,10.752,0,0,1,2.826,2.145,14.768,14.768,0,0,1,2.462,3.593C351.5,407.316,351.126,407.269,350.752,407.208Zm15.136,2.994c-2.369.238-4.826.266-7.268.267-1.534-.01-3.073-.037-4.611-.069-.06-.2-.117-.4-.181-.6q-.151-.434-.319-.864c3.948.479,7.912.571,11.8.805.6.042,1.208.091,1.79.167.088.012.172.025.26.039A12.5,12.5,0,0,1,365.888,410.2Z" transform="translate(480.155 -318.043)" fill="#fff"/>
    <path id="패스_136" data-name="패스 136" d="M361.84,412.057a16.931,16.931,0,0,0-4.521-2.518.084.084,0,0,0-.1.039.087.087,0,0,0,.034.115h0a18.607,18.607,0,0,1,4.09,2.944,12.73,12.73,0,0,1,3.023,13.659,12.054,12.054,0,0,1-2.556,4.039,14.924,14.924,0,0,1-3.875,2.877,21.225,21.225,0,0,1-9.468,2.331,19.964,19.964,0,0,1-4.893-.514,19.5,19.5,0,0,1-4.654-1.663,15.648,15.648,0,0,1-3.986-2.915c-.272-.311-.583-.592-.824-.928l-.731-1.008-.6-1.09c-.194-.368-.317-.77-.481-1.154a12.609,12.609,0,0,1-.7-4.962,12.049,12.049,0,0,1,1.454-4.817,15.136,15.136,0,0,1,3.182-3.941,18.591,18.591,0,0,1,4.189-2.857h.006a.087.087,0,0,0,.039-.111.083.083,0,0,0-.11-.044,18.733,18.733,0,0,0-4.338,2.754,15.507,15.507,0,0,0-3.4,3.942,12.641,12.641,0,0,0-1.685,5.013,13.382,13.382,0,0,0,.579,5.31c.164.416.289.853.488,1.255l.625,1.192.76,1.1c.254.37.576.679.861,1.021a16.751,16.751,0,0,0,4.176,3.215,20.625,20.625,0,0,0,4.874,1.88,21.2,21.2,0,0,0,5.174.674,23.08,23.08,0,0,0,10.189-2.184,16.228,16.228,0,0,0,4.369-3.141,13.031,13.031,0,0,0,2.878-4.686,13.743,13.743,0,0,0-.716-10.7A12.885,12.885,0,0,0,361.84,412.057Z" transform="translate(481.095 -313.527)" fill="#fff"/>
  </g>
</svg>
